{"title":"Icona Pop - Just Another Night [Music Video] 720p [Sbyky]","uid":9418731,"size":32437892,"categoryP":"video","categoryS":"music_videos","magnet":"?xt=urn:btih:d25ff062a6ae7ff465f397d208aa93e29b9cb501&amp;dn=Icona+Pop+-+Just+Another+Night+%5BMusic+Video%5D+720p+%5BSbyky%5D&amp;tr=udp%3A%2F%2Ftracker.openbittorrent.com%3A80&amp;tr=udp%3A%2F%2Fopen.demonii.com%3A1337&amp;tr=udp%3A%2F%2Ftracker.coppersurfer.tk%3A6969&amp;tr=udp%3A%2F%2Fexodus.desync.com%3A6969","seeders":1,"leechers":0,"uploader":"Sbyky","files":1,"time":1388511777,"description":"\n\nGeneral\nComplete name                            : Icona Pop - Just Another Night [Music Video] 720p [Sbyky].mp4\nFormat                                   : MPEG-4\nFormat profile                           : Base Media\nCodec ID                                 : isom\nFile size                                : 30.9 MiB\nDuration                                 : 3mn 31s\nOverall bit rate mode                    : Variable\nOverall bit rate                         : 1 229 Kbps\nEncoded date                             : UTC 2013-11-25 03:48:59\nTagged date                              : UTC 2013-11-25 03:48:59\n\nVideo\nID                                       : 1\nFormat                                   : AVC\nFormat/Info                              : Advanced Video Codec\nFormat profile                           : &lt;a class=&quot;__cf_email__&quot; href=&quot;/cdn-cgi/l/email-protection&quot; data-cfemail=&quot;cb86aaa2a58b87f8e5fa&quot;&gt;[email&amp;#160;protected]&lt;/a&gt;&lt;script cf-hash='f9e31' type=&quot;text/javascript&quot;&gt;\n/* &lt;![CDATA[ */!function(){try{var t=&quot;currentScript&quot;in document?document.currentScript:function(){for(var t=document.getElementsByTagName(&quot;script&quot;),e=t.length;e--;)if(t[e].getAttribute(&quot;cf-hash&quot;))return t[e]}();if(t&amp;&amp;t.previousSibling){var e,r,n,i,c=t.previousSibling,a=c.getAttribute(&quot;data-cfemail&quot;);if(a){for(e=&quot;&quot;,r=parseInt(a.substr(0,2),16),n=2;a.length-n;n+=2)i=parseInt(a.substr(n,2),16)^r,e+=String.fromCharCode(i);e=document.createTextNode(e),c.parentNode.replaceChild(e,c)}}}catch(u){}}();/* ]]&gt; */&lt;/script&gt;\nFormat settings, CABAC                   : Yes\nFormat settings, ReFrames                : 3 frames\nCodec ID                                 : avc1\nCodec ID/Info                            : Advanced Video Coding\nDuration                                 : 3mn 31s\nBit rate                                 : 1 101 Kbps\nWidth                                    : 1 280 pixels\nHeight                                   : 720 pixels\nDisplay aspect ratio                     : 16:9\nFrame rate mode                          : Constant\nFrame rate                               : 23.976 fps\nColor space                              : YUV\nChroma subsampling                       : 4:2:0\nBit depth                                : 8 bits\nScan type                                : Progressive\nBits/(Pixel*Frame)                       : 0.050\nStream size                              : 27.7 MiB (90%)\nEncoded date                             : UTC 2013-11-25 03:48:59\nTagged date                              : UTC 2013-11-25 03:48:59\n\nAudio\nID                                       : 2\nFormat                                   : AAC\nFormat/Info                              : Advanced Audio Codec\nFormat profile                           : LC\nCodec ID                                 : 40\nDuration                                 : 3mn 31s\nBit rate mode                            : Variable\nBit rate                                 : 126 Kbps\nChannel(s)                               : 2 channels\nChannel positions                        : Front: L R\nSampling rate                            : 44.1 KHz\nCompression mode                         : Lossy\nDelay relative to video                  : 42ms\nStream size                              : 3.16 MiB (10%)\nEncoded date                             : UTC 2013-11-25 03:06:21\nTagged date                              : UTC 2013-11-25 03:06:21\n\nShared By Sbyky\n","torrent":{"xt":"urn:btih:d25ff062a6ae7ff465f397d208aa93e29b9cb501","amp;dn":"Icona+Pop+-+Just+Another+Night+%5BMusic+Video%5D+720p+%5BSbyky%5D","amp;tr":["udp%3A%2F%2Ftracker.openbittorrent.com%3A80","udp%3A%2F%2Fopen.demonii.com%3A1337","udp%3A%2F%2Ftracker.coppersurfer.tk%3A6969","udp%3A%2F%2Fexodus.desync.com%3A6969"],"infoHash":"d25ff062a6ae7ff465f397d208aa93e29b9cb501","infoHashBuffer":{"type":"Buffer","data":[210,95,240,98,166,174,127,244,101,243,151,210,8,170,147,226,155,156,181,1]},"announce":[],"urlList":[]}}